<?xml version="1.0" standalone="no"?><!DOCTYPE svg PUBLIC "-//W3C//DTD SVG 1.1//EN" "http://www.w3.org/Graphics/SVG/1.1/DTD/svg11.dtd"><svg t="1664286793764" class="icon" viewBox="0 0 1024 1024" version="1.1" xmlns="http://www.w3.org/2000/svg" p-id="6095" xmlns:xlink="http://www.w3.org/1999/xlink" width="200" height="200"><path d="M683.01 577.645c-13.377-13.659-35.036-13.659-48.413 0L608.46 604.36l-43.732-44.858 61.304-68.425c84.801 48.875 193.952 37.374 266.177-36.405 65.588-66.994 81.508-165.352 48.08-247.756l-144.11 145.16L675.183 228.46 819.01 83.572c-80.432-33.519-176.158-16.97-241.42 49.7-78.691 80.383-85.344 205.585-21.512 294.495l-65.316 55.88-224.45-230.21-0.907-70.11L132.04 99.964l-65.299 66.8 81.067 133.218 70.05 0.028L439.77 527.293 105.674 813.14c-26.742 27.318-26.742 71.588 0 98.9l24.198 24.73c26.73 27.312 70.072 27.312 96.803 0l293.299-327.324 41.7 42.711-23.877 24.382c-13.36 13.66-13.36 35.792 0 49.44l212.068 218.818c13.371 13.66 35.036 13.66 48.397 0l96.813-98.895c13.365-13.66 13.365-35.781 0-49.44L683.01 577.646zM186.024 897.463c-13.382 13.653-35.047 13.653-48.418 0-13.354-13.659-13.354-35.807 0-49.461 13.37-13.66 35.036-13.66 48.418 0 13.359 13.654 13.359 35.802 0 49.461z" p-id="6096" data-spm-anchor-id="a313x.7781069.0.i13" class="selected" fill="#13227a"></path></svg>